<?xml version="1.0" encoding="utf-8"?>
<!-- Generator: Adobe Illustrator 22.0.1, SVG Export Plug-In . SVG Version: 6.00 Build 0)  -->
<svg version="1.1" id="图层_1" xmlns="http://www.w3.org/2000/svg" xmlns:xlink="http://www.w3.org/1999/xlink" x="0px" y="0px"
	 viewBox="0 0 220 220" style="enable-background:new 0 0 220 220;" xml:space="preserve">
<style type="text/css">
	.st0{fill:#333333;}
</style>
<g>
	<path class="st0" d="M17,199.7c0-40.6,0-63.7,0-104.3c0-0.1,0-0.1,0.1-0.2c0.1-0.2,0.3-0.4,0.4-0.7c1.6-4.4,4.7-7.3,9-9
		c3.3-1.3,5.2-2.3,8.5-0.6c1.3,0.7-0.4,2.5,1,3c0.3,0.1-2.6-0.8-2.4-1c0.2-0.2-1.5,0.3-1.6,0c-4-5-8.3-12.5-10.6-18.2
		c-1.1-2.9-0.4-5.6,2.3-7.1c27.4-14.6,54.9-29.3,82.3-43.9c7.4-3.9,14.8-7.8,22.2-11.7c0.5-0.2,1.1-0.5,1.5-0.8
		c0.5-0.2,1.1-0.3,1.7,0.2c0.7,0.7,1.5,1.7,2.1,2.3c0,0,0,0,0,0c7.2,9.1,14.3,18.2,21.4,27.3c3,3.9,6.1,7.7,9.1,11.6
		c0.8,1,1.6,1.6,3,1.5c3.4-0.1,6.9-0.1,10.4,0c3.4,0,5.1,1.7,5.3,5.1c0,0.4,0,0.9,0,1.3c0,12.4,0,24.7,0,37.1c0,1.9-7.5-1.1-5.8-1.8
		c7.1-2.8,1.8-2.2,8.9-5c1.1-0.4,2.3-0.7,3.4-0.6c5.7,0.6,10.3,3,13.2,8.3c0.1,0.2,0.3,0.4,0.5,0.6c0.1,0.1,0.1,0.1,0.1,0.2v108
		c0,0.1,0,0.2-0.1,0.2c-0.2,0.2-0.4,0.5-0.5,0.7c-1.2,2.2-2.8,4.2-5,5.5c-1,0.6-2.1,1.1-3.2,1.7c-0.1,0-0.1,0-0.2,0H26.6
		c-0.1,0-0.2,0-0.3-0.1c-0.1-0.1-0.2-0.2-0.4-0.3c-4.2-1.8-7.1-4.8-8.6-9.2c0-0.1-0.1-0.2-0.2-0.3C17,199.9,17,199.8,17,199.7z
		 M113.4,198.8c30.2,0,39.8,0,70,0c0.5,0,1,0,1.5,0c3,0.2,6.7-3.1,6.7-6.8c-0.1-36.2-0.1-54.7,0-90.9c0-2.7-1.2-4.5-3.3-5.9
		c-0.9-0.6-1.7-0.7-2.7-0.3C162,111,154,115,128.2,126.7c-9.4,3.9-18.9,4.1-28.4,0.3C73.5,116.3,60,109,34.9,95
		c-1.4-0.5-2.3-0.3-3.3,0.5c-1.8,1.4-2.9,3.1-2.9,5.7c0.1,36.1,0.1,54.7,0,90.8c0,2.4,0.9,4.1,2.7,5.5c1.5,1.2,3.2,1.4,5.1,1.4
		C66.8,198.8,83.1,198.8,113.4,198.8z M116.9,60.3c-17,0-34,0-51,0c-1.8,0-2.2,0.4-2.2,2.2c0,12.4,0,24.7,0,37.1
		c0,2.1,0.1,2.3,2.2,3.1c12.9,5.1,25.9,10.2,38.9,15.3c5.8,2.3,11.7,2.3,17.6,0.1c15.3-6,30.3-13.1,45.6-19.2c1.2-0.5,2.1-2.6,2.1-4
		c0-11.6,0-20.7,0-32.3c0-2.1-0.3-2.4-2.4-2.4C150.7,60.3,133.8,60.3,116.9,60.3z M66.3,47.1c-0.3,0.2-0.2,0.6,0.1,0.7
		c0.6,0.2,1.2,0.5,1.9,0.5c27.3,0,54.7,0,82,0c0.6,0,1.1-0.3,1.8-0.5c0.2-0.1,0.3-0.4,0.2-0.6c-1.7-2-3.1-3.7-4.5-5.4
		c-6.3-7.4-12.6-14.8-18.8-22.3c-0.6-0.7-1.1-1.5-2.4-0.9C107,27.8,87.6,36.8,68.1,45.9C67.5,46.2,66.9,46.7,66.3,47.1z M50.5,57.9
		c-0.1-0.2-0.3-0.3-0.5-0.2c-2.9,1.7-5.4,3.3-7.9,4.8c-2.4,1.5-4.9,3-7.3,4.5c-1.6,1-1.6,1.1-0.8,2.7c3.2,7,6.5,14,9.5,21.2
		c1.1,2.7,2.7,4.5,5.5,5.2c1.5,0.4,2.2,0.1,2.2-1.6c0-11.6,0-23.3,0-34.9C51.1,59.1,50.8,58.6,50.5,57.9z"/>
	<path class="st0" d="M105.7,152.3c-2.9-4.1-5.6-7.8-8.2-11.6c-0.5-0.7-0.8-1.7-0.9-2.6c-0.2-1.7,0.6-2.8,1.9-3.2
		c1.6-0.5,3.1,0,4,1.4c3,4.4,6.1,8.9,9.1,13.3c0.6,0.9,1.1,1.8,2.1,3c0.3-0.4,0.5-0.8,0.8-1.2c3.5-5.1,6.9-10.2,10.4-15.3
		c0.8-1.2,2.8-1.6,4.4-0.9c1.2,0.6,1.9,2.4,1.3,4c-0.2,0.6-0.6,1.2-1,1.8c-2.6,3.7-5.3,7.4-8.2,11.4c0.8,0.3,1.5,0.7,2.2,0.7
		c2.6,0.1,5.1,0,7.7,0c2.5,0,3.7,1.1,3.8,3.4c0,2.3-1.1,3.5-3.4,3.5c-4.1,0-8.2,0-12.2,0c-1.8,0-2.2,0.4-2.2,2.2c0,3.8,0,7.5,0,11.3
		c0,1.5,0.5,2,2,2c3.9,0,7.8,0,11.7,0c0.6,0,1.2,0,1.7,0.1c1.8,0.3,2.4,1.1,2.4,2.8c0,1.7-0.7,2.6-2.4,2.8c-1.7,0.2-3.5,0.1-5.2,0.1
		c-2.7,0-5.4,0-8.1,0c-1.6,0-2.1,0.5-2.1,2c0,2.1,0,4.2,0,6.3c0,1.4-0.3,2.6-1.8,3.1c-1.6,0.6-4,0.3-4.8-0.7c-0.4-0.5-0.6-1.3-0.6-2
		c-0.1-2.1,0-4.2,0-6.3c0-2.1-0.4-2.5-2.5-2.5c-3.9,0-7.7,0-11.6,0c-0.7,0-1.3-0.1-2-0.2c-1.3-0.3-1.9-1.3-1.9-2.6
		c0-1.3,0.4-2.4,1.8-2.7c0.7-0.2,1.5-0.2,2.3-0.2c3.9,0,7.8,0,11.7,0c1.6,0,2.2-0.5,2.2-2.2c0-3.7,0-7.4,0-11.2
		c0-1.7-0.5-2.2-2.3-2.2c-4.1,0-8.2,0-12.2,0c-2.4,0-3.6-1.4-3.5-3.8c0.1-2,1.4-3.1,3.8-3.1c2.6,0,5.1,0,7.7,0
		C104.2,153,104.8,152.6,105.7,152.3z"/>
	<path class="st0" d="M118,88.4c-9.7,0-19.4,0-29.1,0c-2.4,0-3.8-1.2-4.3-3.5c-0.6-2.9,1-5.3,3.8-5.5c0.2,0,0.4,0,0.7,0
		c19.3,0,38.7,0,58,0c1.5,0,2.9,0.3,3.8,1.8c1,1.6,1,3.4,0.1,5.1c-0.8,1.6-2.3,2-3.8,2C137.5,88.4,127.7,88.4,118,88.4z"/>
</g>
</svg>
