<?xml version="1.0" encoding="utf-8"?>
<!-- Generator: Adobe Illustrator 22.0.1, SVG Export Plug-In . SVG Version: 6.00 Build 0)  -->
<svg version="1.1" id="图层_1" xmlns="http://www.w3.org/2000/svg" xmlns:xlink="http://www.w3.org/1999/xlink" x="0px" y="0px"
	 viewBox="0 0 220 220" style="enable-background:new 0 0 220 220;" xml:space="preserve">
<style type="text/css">
	.st0{fill:#333333;}
</style>
<g>
	<path class="st0" d="M41.5,210.9c-10.8-1.6-17.9-9.8-17.9-20.8c0-24.3,0-48.5,0-72.8c0-24.1,0-48.3,0-72.4c0-11.4,7-19.5,18.2-21.1
		c0.7-0.1,1.4-0.1,2.1-0.1c34.1,0,68.2,0,102.3,0c5.9,0,7.7,5.6,5.5,9.4c-0.9,1.6-2.5,2.3-4.2,2.6c-0.6,0.1-1.3,0.1-2,0.1
		c-33.4,0-66.8,0-100.2,0c-3.4,0-5.9,1.2-7.9,3.8c-1.1,1.3-1.6,2.9-1.6,4.6c0,5.6,0,11.3,0,16.9c0,43,0.1,86-0.1,129
		c0,4.3,4.5,9,9,9c43.5-0.1,87.1-0.1,130.6,0c4.5,0,9.1-4.5,9.1-9.1c-0.1-38.7-0.1-77.3-0.1-116c0-2.2,0.6-4.2,2.6-5.5
		c2.3-1.3,4.6-1.3,6.9,0c1.6,0.9,2.2,2.5,2.5,4.1c0.1,0.6,0.1,1.3,0.1,2c0,38.5,0,76.9,0,115.4c0,11.2-6.8,19.2-17.8,21"/>
	<path class="st0" d="M87.2,138c-14.4,0-28.8,0-43.2,0c-3.5,0-5.7-1.6-6.4-4.7c-0.9-3.9,1.5-7.2,5.6-7.5c0.3,0,0.7,0,1,0
		c28.7,0,57.5,0,86.2,0c2.2,0,4.4,0.4,5.7,2.5c1.5,2.2,1.5,4.6,0.2,7c-1.2,2.2-3.3,2.8-5.6,2.8C116.2,138.1,101.7,138,87.2,138z"/>
	<path class="st0" d="M65.3,94.2c-7.2,0-14.4,0-21.5,0c-5.6,0-7.3-5.1-5.7-8.7c1.1-2.4,3.1-3.4,5.5-3.4c14.6-0.1,29.2-0.1,43.8,0
		c2.4,0,4.4,0.9,5.4,3.3c1.1,2.5,0.8,4.9-0.9,7c-1.2,1.4-2.9,1.8-4.8,1.9C79.9,94.2,72.6,94.2,65.3,94.2z"/>
	<path class="st0" d="M196,17.1c0.2-0.7,0.4-1.3,0.4-2c0.1-3.8-4.3-7-7.9-5.7c-1.6,0.6-2.9,1.8-4.1,3c-0.3,0.3-0.6,0.6-1,1
		c-0.8,0.7-1.5,1.5-2.2,2.2c-21.7,21.7-43.4,43.3-65.1,65c-2.1,2.1-4.4,4.6-4.5,7.6c-0.1,3.8,4.3,7,7.9,5.7c1.6-0.6,2.9-1.8,4.1-3
		c6.1-6.1,12.2-12.2,18.3-18.3l0,0.1c16.6-16.6,33.3-33.3,49.9-49.9c0.6-0.6,1.3-1.3,1.9-2c0.8-0.9,1.5-1.8,2-2.9
		C195.9,17.5,195.9,17.3,196,17.1z"/>
</g>
</svg>
