<?xml version="1.0" encoding="utf-8"?>
<!-- Generator: Adobe Illustrator 22.0.1, SVG Export Plug-In . SVG Version: 6.00 Build 0)  -->
<svg version="1.1" id="图层_1" xmlns="http://www.w3.org/2000/svg" xmlns:xlink="http://www.w3.org/1999/xlink" x="0px" y="0px"
	 viewBox="0 0 220 220" style="enable-background:new 0 0 220 220;" xml:space="preserve">
<style type="text/css">
	.st0{fill:#333333;}
</style>
<g>
	<path class="st0" d="M10,153.7c0.2-1.9,0.4-3.9,0.6-5.8c2.2-23.3,11.2-38.8,26.9-56.1c10.9-10.6,17.9-15.6,30.7-21.4
		c0.4-0.2,0.8-0.4,1.2-0.6c0.1-0.1,0.2-0.2,0.8-0.6c-1.2-1-2.4-1.9-3.4-2.9c-7.6-7.6-12-16.8-13.4-27.5c-1.1-8.8,4.2-16.9,13.3-20.3
		c6.3-2.3,12.5-2.3,18.8,0.2c1.2,0.5,1.9,0.4,2.9-0.5c12.1-10.5,31.1-10.4,43.1,0.1c1,0.8,1.7,1,2.9,0.5c9.6-3.7,18.4-2.7,26.4,4
		c4.8,4.1,6.6,9.3,6.1,15.5c-0.9,12.1-6.7,21.6-15.6,29.6c-0.5,0.4-0.9,0.9-1.5,1.4c1.3,0.6,2.4,1.2,3.5,1.8
		c29.9,13,47.5,32.6,54.6,66.7c3,14.5,2.9,29.2-1,43.5c-3.8,14.3-13.2,23.6-27.7,27.3c-2.2,0.6-4.5,0.7-6.8,1.1
		c-43.7,0-81.7,0-125.4,0c-0.3-0.1-0.6-0.2-1-0.3c-13.5-1.6-23.5-8.5-30-20.4c-3.5-6.5-4.6-13.8-5.5-21c-0.2-2.1-0.4-4.2-0.6-6.3
		C10,159,10,156.3,10,153.7z M136,71.9c1.7-1.8,3.3-3.6,5-5.3c5.6-5.7,10.5-12,14-19.1c0.8-1.7,1.4-3.6,1.8-5.4
		c0.6-2.8,0.8-5.6-0.6-8.2c-2.2-4.1-8-9.4-15.4-7.9c-3.4,0.7-6.6,1.9-9.8,3c-0.9,0.3-1.6,0.3-2.4-0.4c-10.7-9.6-25.8-9.8-36.9-0.6
		c-0.8,0.7-1.5,0.8-2.5,0.4c-2.5-0.9-5.1-1.8-7.7-2.6c-4.8-1.5-9.1-0.2-13,2.5c-2.4,1.7-4,4.1-4.5,7c-0.9,4.8,0.2,9.3,2,13.7
		c2.6,6.4,7,11.6,12.1,16.2c2.1,1.9,4.2,3.9,6.3,5.9c-0.2,0.3-0.2,0.4-0.3,0.4c-0.2,0.1-0.4,0.2-0.7,0.3
		C59.5,83.6,33,104.6,25.6,131.4c-4.8,17.3-7.4,45.6,7.3,59c7.1,6.5,15.6,9.4,25,9.4c36.5,0.1,67.1,0,103.6,0
		c6.3,0,12.2-1.3,17.9-4.1c7.2-3.6,13-8.5,15.6-16.3c12.4-37.1-10.3-83.2-44.4-100.7c-3-1.5-6.1-2.8-9.2-4.1
		C139.5,73.7,137.7,72.8,136,71.9z"/>
	<path class="st0" d="M112.1,119.5c0.2-0.4,0.4-0.8,0.8-1.1c4-3.9,7.9-7.8,11.9-11.6c1.2-1.1,2.3-2.2,4.1-2.5
		c1.9-0.3,3.3,0.4,4.4,1.9c1.1,1.5,1.1,3,0.2,4.6c-0.4,0.8-1,1.5-1.6,2.1c-4.8,5.1-9.6,10.3-14.4,15.4c-0.2,0.2-0.4,0.6-0.4,0.9
		c0,1.1,0,2.2,0,3.5c0.5,0,0.8,0,1.2,0c3.9,0,7.8,0,11.7,0c1.3,0,2.6,0.3,3.6,1.2c1.4,1.3,1.8,3.3,1,5.1c-0.7,1.7-2.1,2.5-4.3,2.5
		c-4.3,0-8.6,0-13,0c0,2.5,0,4.8,0,7.2c0.3,0,0.7,0,1.1,0c3.6,0,7.3,0,10.9,0c0.6,0,1.3,0.1,1.9,0.1c3.6,0.4,4.3,3.2,3.7,5.9
		c-0.3,1.4-2,2.3-4.1,2.3c-4.1,0-8.2,0-12.3,0c-0.4,0-0.8,0-1.3,0c0,1.4,0,2.6,0,3.9c0,2.3-0.9,4.2-3,5c-2.1,0.9-4.4,0.6-6.3-0.9
		c-1.2-1-1.5-2.4-1.6-3.9c0-1.4,0-2.7,0-4.2c-0.6,0-1.1,0-1.5,0c-3.7,0-7.4,0-11.1,0c-0.3,0-0.5,0-0.8,0c-2.5-0.1-4.1-1.6-4.1-3.7
		c0-2.7,1.7-4.4,4.2-4.4c4,0,7.9,0,11.9,0c0.4,0,0.9,0,1.4,0c0-2.5,0-4.8,0-7.3c-0.5,0-0.9-0.1-1.4-0.1c-3.9,0-7.8,0-11.7,0
		c-2.7,0-4.4-1.6-4.4-4c0-2.6,1.9-4.6,4.5-4.7c4,0,7.9,0,11.9,0c0.9,0,1.1-0.3,1.2-1.2c0.4-2.3-0.5-4-2.1-5.7
		c-4-4.2-7.9-8.5-11.7-12.9c-1.7-2-2.9-4.4-1.6-7.1c0.9-2,2.7-2.7,4.8-2c1.9,0.7,3.5,1.7,4.8,3.2c3.6,4,7.3,7.9,11,11.9
		c0.1,0.1,0.2,0.2,0.3,0.2C111.9,119.3,112,119.4,112.1,119.5z"/>
</g>
</svg>
