<?xml version="1.0" standalone="no"?><!DOCTYPE svg PUBLIC "-//W3C//DTD SVG 1.1//EN" "http://www.w3.org/Graphics/SVG/1.1/DTD/svg11.dtd"><svg t="1592896824652" class="icon" viewBox="0 0 1024 1024" version="1.1" xmlns="http://www.w3.org/2000/svg" p-id="2792" width="40" height="40" xmlns:xlink="http://www.w3.org/1999/xlink"><defs><style type="text/css"></style></defs><path d="M1015.51 639.82a41.1 41.1 0 0 0-19.15-24.96l-112.1-64.72c1.28-12.66 1.93-25.41 1.93-38.14 0-19.4-1.5-38.77-4.47-57.88l108.49-70.58c19.03-12.38 24.42-37.85 12.04-56.88L880.1 138.92a41.126 41.126 0 0 0-25.95-17.8 41.164 41.164 0 0 0-30.93 5.76l-108.49 70.59a372.65 372.65 0 0 0-49.63-26.97V41.11C665.1 18.41 646.69 0 623.98 0H400.02c-22.7 0-41.11 18.41-41.11 41.11v129.38a371.834 371.834 0 0 0-66.06 38.2l-112.1-64.72a41.132 41.132 0 0 0-31.2-4.11 41.1 41.1 0 0 0-24.96 19.15L12.61 352.98c-11.35 19.66-4.62 44.81 15.05 56.16l112.1 64.72a376.83 376.83 0 0 0-1.93 38.14c0 19.4 1.5 38.77 4.47 57.88L33.81 640.46c-19.03 12.38-24.42 37.85-12.04 56.88L143.9 885.07c12.38 19.03 37.85 24.43 56.88 12.04l108.49-70.58a372.65 372.65 0 0 0 49.63 26.97v129.39c0 22.7 18.41 41.11 41.11 41.11h223.96c22.7 0 41.11-18.41 41.11-41.11V825.75c0-22.7-18.41-41.11-41.11-41.11s-41.11 18.41-41.11 41.11v116.02H441.13V825.75c0-17.38-10.93-32.88-27.29-38.72-28.28-10.09-54.78-24.49-78.76-42.8-13.82-10.55-32.78-11.26-47.36-1.78l-97.32 63.31-77.29-118.81 97.26-63.28a41.122 41.122 0 0 0 17.58-43.96c-5.25-22.1-7.91-44.89-7.91-67.73 0-17.62 1.59-35.3 4.72-52.54 3.1-17.08-4.86-34.27-19.89-42.95l-100.5-58.02 70.87-122.75 100.56 58.06c15.05 8.69 33.95 6.98 47.19-4.29 27.04-23 57.61-40.67 90.85-52.54 16.37-5.84 27.29-21.34 27.29-38.72V82.22h141.74v116.02c0 17.38 10.93 32.88 27.29 38.72 28.28 10.09 54.78 24.49 78.76 42.79 13.82 10.55 32.79 11.26 47.36 1.78l97.32-63.31 77.29 118.81-97.26 63.28a41.122 41.122 0 0 0-17.58 43.96c5.25 22.1 7.91 44.89 7.91 67.73 0 17.63-1.59 35.31-4.72 52.54-3.1 17.08 4.86 34.27 19.89 42.95l100.5 58.02-70.87 122.75L748.2 730.2c-19.66-11.35-44.81-4.62-56.16 15.05-11.35 19.66-4.62 44.81 15.05 56.16l136.16 78.61a41.132 41.132 0 0 0 31.2 4.11 41.1 41.1 0 0 0 24.96-19.15l111.98-193.96a41.09 41.09 0 0 0 4.12-31.2z" p-id="2793" fill="#515151"></path><path d="M512 324.34c-103.47 0-187.66 84.18-187.66 187.66S408.53 699.66 512 699.66 699.66 615.47 699.66 512 615.48 324.34 512 324.34z m0 293.1c-58.14 0-105.44-47.3-105.44-105.44S453.87 406.56 512 406.56 617.44 453.86 617.44 512 570.14 617.44 512 617.44z" p-id="2794" fill="#515151"></path></svg>