<?xml version="1.0" encoding="utf-8"?>
<!-- Generator: Adobe Illustrator 22.0.1, SVG Export Plug-In . SVG Version: 6.00 Build 0)  -->
<svg version="1.1" id="图层_1" xmlns="http://www.w3.org/2000/svg" xmlns:xlink="http://www.w3.org/1999/xlink" x="0px" y="0px"
	 viewBox="0 0 220 220" style="enable-background:new 0 0 220 220;" xml:space="preserve">
<style type="text/css">
	.st0{fill:none;}
	.st1{fill:#333333;}
</style>
<g>
	<path class="st0" d="M30.8,160.1c0,0.5-0.1,0.9,0,1.4c0.2,1.2,1.4,1.9,2.5,1.3c4.8-2.6,10-3.3,15.4-3.3c29,0.1,57.9,0,86.9,0
		c30.6,0,19.3,0,49.9,0c2.3,0,2.9-0.6,2.9-2.8c0-60,0-76,0-136.1c0-2.2-0.6-2.7-2.8-2.7c-11.6,0-10.3,0-21.9,0c-15.5,0-2.1,0-17.6,0
		c-1.2,0-2.2,0.2-2.7,1.4c-0.2,0.6-0.1,1.3-0.1,1.9c0,38.9,0,32.9,0,71.8c0,1.2-0.7,2.3-1,3.5c-1.2-0.4-2.3-0.7-3.5-1.1
		c-0.2-0.1-0.4-0.2-0.6-0.4c-11-7.4-21.9-14.9-32.8-22.4c-1.5-1.1-2.6-1.1-4.2-0.1c-11.6,7.7-23.3,15.3-35,22.9
		c-0.7,0.4-1.4,0.8-2.2,1.1c-1.1,0.4-2,0-2.2-1.2c-0.2-1-0.3-2.1-0.3-3.1c0-38.8,0-32.6,0-71.4c0-2.3-0.5-2.8-2.8-2.8
		c-4.1,0-8.1,0.2-12.2,0c-8.4-0.4-15.9,7.8-15.8,15.7C30.9,90.4,30.8,103.3,30.8,160.1z"/>
	<path class="st0" d="M74.2,75.7c0.4,0.3,1.6-0.2,2.3-0.6c6.4-4.1,12.8-8.3,19.2-12.5c5.3-3.5,10.6-3.3,15.9,0.3
		c5.9,4,11.8,8,17.7,12c0.5,0.3,1.5,0.7,1.8,0.5c0.6-0.5,0.8-1.4,1.2-2.1c0.1-0.1,0-0.3,0-0.5c0-32.3,0-19.6,0-52
		c0-2.3-0.5-2.8-2.9-2.8c-17.7,0-35.4,0-53.2,0c-2.6,0-3,0.5-3.1,3c0,16.2,0,12.3,0,28.5c0,16.3,0,7.6,0,23.8
		C73,74.1,73.5,75.2,74.2,75.7z"/>
	<path class="st0" d="M185.9,171c-60.4,0-78.8,0-139.3,0c-5.8,0-10,2.5-13.2,7c-3.3,4.7-3.7,10-1,15.1c2.8,5.2,7.2,8.6,13.4,8.6
		c30.2,0,60.5,0,90.7,0c30.4,0,18.7,0,49.1,0c2.3,0,2.8-0.6,2.8-2.8c0-8.4,0-16.8,0-25.2C188.5,171.6,187.9,171,185.9,171z"/>
	<path class="st1" d="M197.1,7.2c-66.5,0-91,0-157.6,0c-2.2,0.9-4.4,1.7-6.5,2.8c-6.9,3.6-10.9,9.6-12.9,17
		c-0.1,0.4-0.3,0.7-0.4,1.1c0,69.2,0,94.4,0,163.6c0.4,1.2,0.7,2.4,1.2,3.6c3.3,9.2,9.7,14.9,19.1,17.3c0.3,0.1,0.6,0.3,0.9,0.4
		c65.9,0,89.9,0,155.8,0c1.2-1.4,2.3-2.8,3.5-4.2c0-80.4,0-116.8,0-197.3C199.2,10,198.2,8.6,197.1,7.2z M73,49.4
		c0-16.2,0-12.3,0-28.5c0-2.5,0.5-3,3.1-3c17.7,0,35.4,0,53.2,0c2.3,0,2.9,0.5,2.9,2.8c0,32.3,0,19.6,0,52c0,0.2,0.1,0.4,0,0.5
		c-0.4,0.7-0.6,1.6-1.2,2.1c-0.3,0.2-1.3-0.2-1.8-0.5c-5.9-4-11.8-8-17.7-12c-5.2-3.6-10.5-3.7-15.9-0.3
		c-6.4,4.2-12.8,8.4-19.2,12.5c-0.7,0.4-1.9,0.9-2.3,0.6c-0.6-0.5-1.1-1.6-1.1-2.5C73,57,73,65.7,73,49.4z M46.6,17.9
		c4,0.2,8.1,0,12.2,0c2.3,0,2.8,0.5,2.8,2.8c0,38.8,0,32.6,0,71.4c0,1,0.1,2.1,0.3,3.1c0.2,1.2,1.1,1.6,2.2,1.2
		c0.8-0.3,1.5-0.6,2.2-1.1c11.7-7.6,23.4-15.2,35-22.9c1.6-1,2.6-1,4.2,0.1c10.9,7.5,21.9,14.9,32.8,22.4c0.2,0.1,0.4,0.3,0.6,0.4
		c1.2,0.4,2.3,0.7,3.5,1.1c0.4-1.2,1-2.3,1-3.5c0.1-38.9,0-32.9,0-71.8c0-0.6-0.1-1.3,0.1-1.9c0.5-1.2,1.5-1.4,2.7-1.4
		c15.5,0,2.1,0,17.6,0c11.6,0,10.3,0,21.9,0c2.2,0,2.8,0.6,2.8,2.7c0,60,0,76,0,136.1c0,2.3-0.6,2.8-2.9,2.8c-30.6,0-19.3,0-49.9,0
		c-29,0-57.9,0-86.9,0c-5.4,0-10.6,0.7-15.4,3.3c-1.1,0.6-2.3-0.1-2.5-1.3c-0.1-0.5,0-0.9,0-1.4c0-56.8,0.1-69.7-0.1-126.5
		C30.7,25.7,38.2,17.5,46.6,17.9z M185.6,201.7c-30.4,0-18.7,0-49.1,0c-30.2,0-60.5,0-90.7,0c-6.3,0-10.7-3.4-13.4-8.6
		c-2.7-5.1-2.3-10.4,1-15.1c3.2-4.5,7.4-7,13.2-7c60.4,0.1,78.8,0,139.3,0c2,0,2.6,0.6,2.6,2.7c0,8.4,0,16.8,0,25.2
		C188.5,201.2,187.9,201.7,185.6,201.7z"/>
</g>
</svg>
