<?xml version="1.0" encoding="utf-8"?>
<!-- Generator: Adobe Illustrator 22.0.1, SVG Export Plug-In . SVG Version: 6.00 Build 0)  -->
<svg version="1.1" id="图层_1" xmlns="http://www.w3.org/2000/svg" xmlns:xlink="http://www.w3.org/1999/xlink" x="0px" y="0px"
	 viewBox="0 0 220 220" style="enable-background:new 0 0 220 220;" xml:space="preserve">
<style type="text/css">
	.st0{fill:#333333;}
</style>
<path class="st0" d="M115,218.6h-9.4c-0.2,0-0.5-0.1-0.7-0.2c-0.1-0.1-0.2-0.1-0.3-0.1c-16.4-3.2-26.5-12.9-30.3-29.2
	c-0.6-2.6-0.7-2.7-3.4-2.7c-15.9,0-36.8,0-52.6,0c-3.5,0-5.8-1.5-6.7-4.4c-0.1-0.4-0.3-0.8-0.4-1.2c-0.2-0.4-0.1-0.9,0.1-1.2
	c0.1-0.2,0.2-0.4,0.2-0.6c1-3.3,3.1-4.9,6.6-4.9c2.7,0,5.3,0,8,0c1.4,0,2-0.6,2-2c0-1.8,0-3.7,0-5.5c0-19.1,0-52.6,0-71.7
	c0-6.2,0.5-12.4,2-18.4c7.2-28.2,29.5-47.2,57.3-56.3c4.5-1.5,9.3-2.1,14-3c1.6-0.3,2.6-0.8,2.5-2.8c-0.1-2-0.1-4.1,0-6.1
	c0.1-1.3,0.3-2.6,0.9-3.7c0.6-1.1,1.6-2,2.8-2.5c1.5-0.7,3.2-0.9,4.7-0.2c0.3,0.1,0.7,0.3,1,0.5c0.6,0.3,1.1,0.8,1.6,1.3
	c0.7,0.8,1.1,1.8,1.2,2.9c0.3,2.6,0.3,5.2,0.3,7.8c-0.1,2.3,1,2.7,3,2.9c1.5,0.1,3.1,0.4,4.6,0.7c18.1,3.6,38.3,12.1,50.2,26.3
	c11.7,14.1,17.7,30.4,17.9,48.7c0.2,21.5,0.1,57.3,0.1,78.8c0,2.1,0.4,2.5,2.5,2.5c2.5,0,5,0,7.4,0c3.6,0,5.5,1.4,6.8,4.7
	c0,0.1,0.1,0.2,0.2,0.3c0,0.9,0,1.4-0.1,2.3c-0.1,0.1-0.1,0.1-0.1,0.2c-1.6,3.6-3.3,4.8-7.2,4.8c-16,0-37,0-53,0
	c-1.8,0-2.2,0.4-2.6,2.2c-3.1,14.3-11.4,24-25.4,28.5c-1.7,0.6-3.5,0.9-5.2,1.4C115.2,218.6,115.1,218.6,115,218.6z M110.1,174.1
	c20.7,0,46.4,0,67.1,0c2.1,0,2.5-0.4,2.5-2.5c0-21.1,0.1-56.7,0-77.8c0-4.1-0.3-8.3-1-12.3c-2.4-13.4-8.7-24.9-18.6-34.3
	c-16.7-16-41.6-21.3-64.1-16.8C83,33,67.1,39.6,58,49.2C46.8,61.2,40.7,75.3,40.5,91.7c-0.2,21.8-0.1,58-0.1,79.8
	c0,2.1,0.4,2.5,2.5,2.5C63.7,174.1,89.4,174.1,110.1,174.1z M110,186.5c-7.1,0-14.2,0-21.3,0c-1.1,0-1.9,0.3-2.1,1.4
	c-0.1,0.7,0.1,1.4,0.4,2.1c3.7,11.3,15.1,18.2,27,16.2c9.7-1.7,15.9-7.5,19.2-16.6c0.8-2.2-0.3-3.2-2.3-3.1
	C124,186.5,117,186.5,110,186.5z"/>
</svg>
